<?xml version="1.0" standalone="no"?>
<!DOCTYPE svg PUBLIC "-//W3C//DTD SVG 20010904//EN"
 "http://www.w3.org/TR/2001/REC-SVG-20010904/DTD/svg10.dtd">
<svg version="1.0" xmlns="http://www.w3.org/2000/svg"
 width="260.000000pt" height="260.000000pt" viewBox="0 0 260.000000 260.000000"
 preserveAspectRatio="xMidYMid meet">
<metadata>
Created by potrace 1.11, written by Peter Selinger 2001-2013
</metadata>
<g transform="translate(0.000000,260.000000) scale(0.100000,-0.100000)"
fill="#000000" stroke="none">
<path d="M573 1925 c-101 -22 -184 -67 -246 -135 -69 -74 -91 -134 -91 -245 1
-105 28 -168 97 -231 74 -67 107 -80 400 -168 132 -40 189 -103 155 -173 -44
-90 -223 -88 -423 6 -44 21 -102 54 -128 75 -26 20 -51 35 -55 32 -4 -2 -34
-59 -67 -125 l-60 -122 30 -24 c44 -38 241 -131 315 -150 96 -26 316 -31 404
-11 147 35 261 117 308 224 29 65 36 190 14 265 -21 72 -97 157 -176 197 -31
16 -115 47 -186 70 -200 64 -217 71 -251 106 -42 41 -45 89 -7 125 23 22 34
24 112 24 99 0 184 -23 310 -82 42 -20 80 -37 85 -37 10 -1 126 247 120 257
-8 13 -105 59 -177 83 -154 53 -349 68 -483 39z"/>
<path d="M1500 1285 l0 -625 165 0 165 0 0 225 0 225 280 0 280 0 0 130 0 130
-280 0 -280 0 0 145 0 145 305 0 305 0 0 125 0 125 -470 0 -470 0 0 -625z"/>
</g>
</svg>
